<svg version="1.2" xmlns="http://www.w3.org/2000/svg" viewBox="0 0 18 18" width="18" height="18">
	<style>
		.s0 { fill: #ffffff;stroke: #e3831d;paint-order:stroke fill markers;stroke-linejoin: round;stroke-width: 2 } 
	</style>
	<path class="s0" d="m9 17c0 0 6-5.69 6-10 0-1.59-0.63-3.12-1.76-4.24-1.12-1.13-2.65-1.76-4.24-1.76-1.59 0-3.12 0.63-4.24 1.76-1.13 1.12-1.76 2.65-1.76 4.24 0 4.31 6 10 6 10zm0-7c-0.8 0-1.56-0.32-2.12-0.88-0.56-0.56-0.88-1.32-0.88-2.12 0-0.8 0.32-1.56 0.88-2.12 0.56-0.56 1.32-0.88 2.12-0.88 0.8 0 1.56 0.32 2.12 0.88 0.56 0.56 0.88 1.32 0.88 2.12 0 0.8-0.32 1.56-0.88 2.12-0.56 0.56-1.32 0.88-2.12 0.88z"/>
</svg>